<svg xmlns="http://www.w3.org/2000/svg" viewBox="0 0 480 160" width="100%" height="100%">
  <!-- Ayala Foundation Official Blue & Orange Vector Logo -->
  <g transform="translate(10, 15)">
    <!-- Iconic Ayala Geometric Weave Emblem (Blue) -->
    <g transform="matrix(1.95 0 0 1.95 395 -680)">
      <path d="m-202.3 360.2 15.8 29.9-15.8 29.9h8.2l11.8-22.5 1.9 3.6-9.8 18.9h9l5.3-10 5.3 10 5.3-10 5.3 10h9.3l-21.6-41.3h-.1l1.9-3.7 1.9 3.7 21.6 41.3h7.9l-15.8-29.9 15.8-29.9h-8.4l-11.6 22.2-1.9-3.7 9.7-18.5h-8.8l-5.3 10-5.3-10-5.3 10-5.3-10h-9.1l21.3 40.8h.1l-1.9 3.7-1.9-3.7-21.4-40.8z" fill="#0046FE" />
    </g>

    <!-- Typography: Ayala Foundation (Orange) -->
    <text x="145" y="58" fill="#FF6B00" font-family="-apple-system, BlinkMacSystemFont, 'Segoe UI', Roboto, Helvetica, Arial, sans-serif" font-size="52" font-weight="700" letter-spacing="-0.5px">Ayala</text>
    <text x="145" y="112" fill="#FF6B00" font-family="-apple-system, BlinkMacSystemFont, 'Segoe UI', Roboto, Helvetica, Arial, sans-serif" font-size="44" font-weight="600" letter-spacing="-0.5px">Foundation</text>
  </g>
</svg>
